<svg aria-hidden="true" style="position: absolute; width: 0; height: 0; overflow: hidden;" version="1.1" xmlns="http://www.w3.org/2000/svg" xmlns:xlink="http://www.w3.org/1999/xlink">
     <defs>
          <symbol id="icon-icon-check" viewBox="0 0 39 32">
               <path fill="none" stroke="#fff" style="stroke: var(--color1, #fff)" stroke-linejoin="miter" stroke-linecap="butt" stroke-miterlimit="4" stroke-width="7.1111" d="M3.556 15.303l9.586 9.586 21.333-21.333"></path>
          </symbol>
          <symbol id="icon-icon-cross" viewBox="0 0 32 32">
               <path fill="#494c6b" style="fill: var(--color2, #494c6b)" d="M30.169 0l1.259 1.257-14.457 14.459 14.457 14.457-1.257 1.257-14.457-14.457-14.457 14.457-1.257-1.26 14.457-14.457-14.457-14.455 1.257-1.257 14.459 14.457 14.455-14.457z"></path>
          </symbol>
          <symbol id="icon-icon-moon" viewBox="0 0 32 32">
               <path fill="#fff" style="fill: var(--color1, #fff)" d="M16 0c0.997 0 1.973 0.091 2.921 0.266-5.883 1.21-10.305 6.417-10.305 12.657 0 7.137 5.786 12.923 12.923 12.923 3.687 0 7.015-1.545 9.37-4.022-2.33 5.957-8.127 10.176-14.908 10.176-8.837 0-16-7.163-16-16s7.163-16 16-16z"></path>
          </symbol>
          <symbol id="icon-icon-sun" viewBox="0 0 32 32">
               <path fill="#fff" style="fill: var(--color1, #fff)" d="M16 25.846c0.68 0 1.231 0.551 1.231 1.231v0 3.692c0 0.68-0.551 1.231-1.231 1.231s-1.231-0.551-1.231-1.231v0-3.692c0-0.68 0.551-1.231 1.231-1.231v0zM9.038 22.962c0.223 0.223 0.36 0.53 0.36 0.87s-0.138 0.647-0.36 0.87l-2.61 2.61c-0.221 0.214-0.523 0.346-0.855 0.346-0.68 0-1.231-0.551-1.231-1.231 0-0.332 0.132-0.634 0.346-0.855l2.609-2.61c0.223-0.223 0.531-0.361 0.871-0.361s0.648 0.138 0.871 0.361v0zM24.703 22.962l2.61 2.61c0.214 0.221 0.346 0.523 0.346 0.855 0 0.68-0.551 1.231-1.231 1.231-0.332 0-0.634-0.132-0.855-0.346l-2.61-2.609c-0.223-0.223-0.361-0.531-0.361-0.871 0-0.68 0.551-1.231 1.231-1.231 0.34 0 0.647 0.138 0.87 0.36v0zM16 9.846c3.399 0 6.154 2.755 6.154 6.154s-2.755 6.154-6.154 6.154v0c-3.399 0-6.154-2.755-6.154-6.154s2.755-6.154 6.154-6.154v0zM30.769 14.769c0.68 0 1.231 0.551 1.231 1.231s-0.551 1.231-1.231 1.231v0h-3.692c-0.68 0-1.231-0.551-1.231-1.231s0.551-1.231 1.231-1.231v0h3.692zM4.923 14.769c0.68 0 1.231 0.551 1.231 1.231s-0.551 1.231-1.231 1.231v0h-3.692c-0.68 0-1.231-0.551-1.231-1.231s0.551-1.231 1.231-1.231v0h3.692zM27.313 4.687c0.223 0.223 0.36 0.53 0.36 0.87s-0.138 0.647-0.36 0.87l-2.609 2.61c-0.223 0.223-0.531 0.361-0.871 0.361-0.68 0-1.231-0.551-1.231-1.231 0-0.34 0.138-0.647 0.36-0.87l2.61-2.61c0.223-0.223 0.53-0.36 0.87-0.36s0.647 0.138 0.87 0.36v0zM6.427 4.687l2.61 2.609c0.223 0.223 0.361 0.531 0.361 0.871 0 0.68-0.551 1.231-1.231 1.231-0.339 0-0.647-0.137-0.87-0.36l-2.612-2.612c-0.214-0.221-0.346-0.523-0.346-0.855 0-0.68 0.551-1.231 1.231-1.231 0.332 0 0.634 0.132 0.855 0.346l-0-0zM16 0c0.68 0 1.231 0.551 1.231 1.231v0 3.692c0 0.68-0.551 1.231-1.231 1.231s-1.231-0.551-1.231-1.231v0-3.692c0-0.68 0.551-1.231 1.231-1.231v0z"></path>
          </symbol>
          <symbol id="icon-list2" viewBox="0 0 32 32">
               <path d="M12 2h20v4h-20v-4zM12 14h20v4h-20v-4zM12 26h20v4h-20v-4zM0 4c0-2.209 1.791-4 4-4s4 1.791 4 4c0 2.209-1.791 4-4 4s-4-1.791-4-4zM0 16c0-2.209 1.791-4 4-4s4 1.791 4 4c0 2.209-1.791 4-4 4s-4-1.791-4-4zM0 28c0-2.209 1.791-4 4-4s4 1.791 4 4c0 2.209-1.791 4-4 4s-4-1.791-4-4z"></path>
          </symbol>
     </defs>
</svg>